<?xml version="1.0" standalone="no"?>
<!DOCTYPE svg PUBLIC "-//W3C//DTD SVG 20010904//EN"
 "http://www.w3.org/TR/2001/REC-SVG-20010904/DTD/svg10.dtd">
<svg version="1.0" xmlns="http://www.w3.org/2000/svg"
 width="32" height="32" viewBox="0 0 128.000000 128.000000"
 preserveAspectRatio="xMidYMid meet">

<g transform="translate(0.000000,128.000000) scale(0.100000,-0.100000)"
fill="#000000" stroke="none">
<path d="M224 1196 c-155 -50 -236 -173 -205 -311 7 -32 26 -73 45 -98 l32
-42 -17 -50 c-15 -41 -18 -84 -19 -238 0 -185 0 -188 24 -212 22 -22 100 -39
149 -33 14 2 23 -10 38 -47 20 -53 50 -85 79 -85 31 0 67 38 80 84 10 38 16
45 44 49 41 7 339 -3 347 -11 3 -4 14 -29 23 -55 34 -91 98 -88 142 7 l24 53
74 6 c80 6 109 18 125 54 7 14 11 96 11 201 -1 147 -4 186 -20 232 -18 53 -18
56 0 75 57 63 79 159 55 241 -24 84 -90 146 -185 175 -97 29 -223 23 -324 -15
-86 -33 -124 -33 -217 1 -89 32 -238 41 -305 19z m292 -50 c91 -33 144 -33
241 1 64 22 95 27 178 27 94 1 105 -1 168 -32 90 -45 120 -88 125 -182 4 -72
-11 -117 -62 -177 l-25 -30 22 -44 c20 -39 22 -60 22 -191 1 -82 -3 -148 -7
-148 -4 0 -8 -5 -8 -11 0 -5 5 -7 10 -4 16 10 12 -42 -5 -75 l-16 -30 -518 0
c-498 0 -519 1 -535 19 -16 17 -17 40 -14 208 3 168 5 192 24 227 l21 39 -38
51 c-112 148 -41 328 148 376 63 16 190 4 269 -24z m-112 -958 c-22 -72 -32
-83 -63 -73 -15 5 -51 68 -51 90 0 3 27 5 61 5 58 0 60 -1 53 -22z m562 6 c-3
-9 -9 -27 -12 -40 -7 -27 -38 -49 -55 -38 -12 7 -39 66 -39 84 0 6 24 10 56
10 47 0 55 -3 50 -16z"/>
<path d="M225 1140 c-3 -5 -2 -10 4 -10 5 0 13 5 16 10 3 6 2 10 -4 10 -5 0
-13 -4 -16 -10z"/>
<path d="M374 870 c-45 -18 -73 -90 -35 -90 13 0 20 10 25 31 5 24 10 30 28
27 13 -2 29 -15 36 -30 7 -16 20 -28 28 -28 31 0 5 72 -33 89 -13 6 -25 11
-26 10 -1 0 -12 -4 -23 -9z"/>
<path d="M845 870 c-42 -16 -66 -81 -33 -88 11 -2 18 4 20 19 7 49 69 50 76 0
5 -32 32 -26 32 7 0 46 -52 80 -95 62z"/>
<path d="M520 728 c0 -96 48 -168 111 -168 49 0 83 40 99 116 16 76 11 87 -34
69 -45 -19 -87 -19 -133 0 -46 19 -43 20 -43 -17z m155 -89 c9 -14 -23 -49
-45 -49 -27 0 -54 25 -47 44 7 18 81 23 92 5z"/>
<path d="M350 434 c0 -8 5 -12 10 -9 6 3 10 10 10 16 0 5 -4 9 -10 9 -5 0 -10
-7 -10 -16z"/>
<path d="M180 270 c0 -5 5 -10 10 -10 6 0 10 5 10 10 0 6 -4 10 -10 10 -5 0
-10 -4 -10 -10z"/>
</g>
</svg>
